<svg width="24" height="24" viewBox="0 0 24 24" fill="none" xmlns="http://www.w3.org/2000/svg">
<path d="M2.05839 24C1.91241 24 1.79562 23.9562 1.70803 23.8686C1.62044 23.781 1.57664 23.6642 1.57664 23.5182V18.6131H0.481752C0.335767 18.6131 0.218978 18.5693 0.131387 18.4818C0.0437953 18.3942 0 18.2774 0 18.1314C0 17.9854 0.0437953 17.8686 0.131387 17.781C0.218978 17.6934 0.335767 17.6496 0.481752 17.6496H1.57664V10.4234H1.18248C0.89051 10.4234 0.693431 10.292 0.591241 10.0292C0.489051 9.76642 0.540145 9.53285 0.744525 9.32847L10.7737 0.262774C10.9781 0.0875914 11.2409 0 11.562 0C11.8832 0 12.146 0.0875914 12.3504 0.262774L22.3796 9.32847C22.5839 9.53285 22.635 9.76642 22.5328 10.0292C22.4307 10.292 22.2336 10.4234 21.9416 10.4234H21.5474V17.6496H22.6423C22.7883 17.6496 22.9051 17.6934 22.9927 17.781C23.0803 17.8686 23.1241 17.9854 23.1241 18.1314C23.1241 18.2774 23.0803 18.3942 22.9927 18.4818C22.9051 18.5693 22.7883 18.6131 22.6423 18.6131H21.5474V23.5182C21.5474 23.6642 21.5036 23.781 21.4161 23.8686C21.3285 23.9562 21.2117 24 21.0657 24C20.9197 24 20.8029 23.9562 20.7153 23.8686C20.6277 23.781 20.5839 23.6642 20.5839 23.5182V18.6131H12.0438V23.5182C12.0438 23.6642 12 23.781 11.9124 23.8686C11.8248 23.9562 11.708 24 11.562 24C11.4161 24 11.2993 23.9562 11.2117 23.8686C11.1241 23.781 11.0803 23.6642 11.0803 23.5182V18.6131H2.54015V23.5182C2.54015 23.6642 2.49635 23.781 2.40876 23.8686C2.32117 23.9562 2.20438 24 2.05839 24ZM2.54015 17.6496H11.0803V1.31387L2.54015 9.0219V17.6496ZM12.0438 17.6496H20.5839V9.0219L12.0438 1.31387V17.6496Z" fill="white"/>
</svg>
