<svg width="24" height="24" viewBox="0 0 24 24" fill="none" xmlns="http://www.w3.org/2000/svg">
<path d="M11.3743 23.0815C9.81757 23.0591 8.34439 22.7421 6.95472 22.1306C5.56506 21.519 4.35311 20.6963 3.31886 19.6626C2.28515 18.6284 1.47372 17.4108 0.88455 16.0099C0.29485 14.6091 0 13.1194 0 11.5408C0 9.93978 0.300187 8.43884 0.90056 7.03797C1.50093 5.6371 2.32384 4.41421 3.36929 3.36929C4.41421 2.32384 5.6371 1.50093 7.03797 0.90056C8.43884 0.300187 9.93978 0 11.5408 0C14.6093 0 17.2443 1.02304 19.4457 3.06911C21.6471 5.11465 22.8699 7.64955 23.1144 10.6738H22.3139C22.1586 8.62776 21.4805 6.77648 20.2798 5.11998C19.0791 3.46349 17.5114 2.2462 15.5769 1.46811V2.10131C15.5769 2.8351 15.321 3.46882 14.8092 4.00249C14.298 4.53615 13.6642 4.80298 12.908 4.80298H10.1735V7.50466C10.1735 7.88303 10.0454 8.20003 9.78928 8.45565C9.53366 8.71128 9.21693 8.83909 8.83909 8.83909H6.13741V11.5408H8.77265V15.5769H7.50466L1.03424 9.10566C0.967534 9.50591 0.90643 9.90616 0.850929 10.3064C0.795427 10.7067 0.767677 11.1181 0.767677 11.5408C0.767677 14.4759 1.78484 16.9943 3.81917 19.0959C5.85404 21.1969 8.3724 22.2696 11.3743 22.3139V23.0815ZM23.3145 22.514L18.8453 18.1449C18.4675 18.456 18.0504 18.6839 17.5941 18.8285C17.1384 18.9731 16.677 19.0454 16.2101 19.0454C15.0542 19.0454 14.0703 18.6396 13.2586 17.8279C12.4469 17.0162 12.0411 16.0324 12.0411 14.8764C12.0411 13.72 12.4469 12.7303 13.2586 11.9074C14.0703 11.085 15.0542 10.6738 16.2101 10.6738C17.3665 10.6738 18.3562 11.085 19.1791 11.9074C20.0015 12.7303 20.4127 13.72 20.4127 14.8764C20.4127 15.3653 20.3294 15.8432 20.1629 16.3101C19.9959 16.7771 19.7456 17.1998 19.4121 17.5781L23.882 21.9472C23.9706 22.0364 24.0093 22.1364 23.9981 22.2474C23.9874 22.3584 23.9487 22.4473 23.882 22.514C23.8153 22.5807 23.7262 22.6141 23.6147 22.6141C23.5037 22.6141 23.4036 22.5807 23.3145 22.514ZM16.2101 18.2786C17.144 18.2786 17.9501 17.945 18.6284 17.2779C19.3067 16.6109 19.6458 15.8104 19.6458 14.8764C19.6458 13.9425 19.3067 13.1364 18.6284 12.4581C17.9501 11.7799 17.144 11.4407 16.2101 11.4407C15.2762 11.4407 14.4757 11.7799 13.8086 12.4581C13.1415 13.1364 12.808 13.9425 12.808 14.8764C12.808 15.8104 13.1415 16.6109 13.8086 17.2779C14.4757 17.945 15.2762 18.2786 16.2101 18.2786Z" fill="white"/>
</svg>
